<svg width="18" height="19" viewBox="0 0 18 19" fill="none" xmlns="http://www.w3.org/2000/svg">
<path d="M18 11.7692V16.9326C18 17.4803 17.7893 18.0057 17.4142 18.393C17.0391 18.7803 16.5304 18.9979 16 18.9979H2C1.46957 18.9979 0.960859 18.7803 0.585786 18.393C0.210714 18.0057 0 17.4803 0 16.9326V2.47525C0 1.92748 0.210714 1.40216 0.585786 1.01483C0.960859 0.627509 1.46957 0.409912 2 0.409912H7V2.47525H2V16.9326H16V11.7692H18Z" fill="#163020"/>
<path d="M18 4.54058H14V0.409912H12V4.54058H8V6.60591H12V10.7366H14V6.60591H18V4.54058Z" fill="#163020"/>
</svg>
