<svg width="30" height="30" viewBox="0 0 30 30" fill="none" xmlns="http://www.w3.org/2000/svg">
<path d="M21 26V30H0V26C0 26 0 18 10.5 18C21 18 21 26 21 26ZM15.75 7.00006C15.75 5.61559 15.4421 4.26222 14.8652 3.11107C14.2883 1.95993 13.4684 1.06273 12.5091 0.532916C11.5498 0.00310378 10.4942 -0.135519 9.47577 0.134577C8.45737 0.404673 7.52192 1.07136 6.78769 2.05032C6.05346 3.02929 5.55345 4.27656 5.35088 5.63443C5.1483 6.99229 5.25227 8.39975 5.64963 9.67883C6.04699 10.9579 6.7199 12.0512 7.58326 12.8203C8.44661 13.5895 9.46165 14 10.5 14C11.8924 14 13.2277 13.2625 14.2123 11.9498C15.1969 10.637 15.75 8.85657 15.75 7.00006ZM20.91 18C21.8321 18.9515 22.5867 20.1609 23.1205 21.543C23.6544 22.9252 23.9546 24.4465 24 26V30H30V26C30 26 30 18.74 20.91 18ZM19.5 7.35928e-05C18.4677 -0.00632867 17.4582 0.405135 16.605 1.18007C17.5162 2.87754 18.0061 4.91263 18.0061 7.00006C18.0061 9.08748 17.5162 11.1226 16.605 12.82C17.4582 13.595 18.4677 14.0064 19.5 14C20.8924 14 22.2277 13.2625 23.2123 11.9498C24.1969 10.637 24.75 8.85657 24.75 7.00006C24.75 5.14355 24.1969 3.36307 23.2123 2.05032C22.2277 0.73757 20.8924 7.35928e-05 19.5 7.35928e-05Z" fill="black"/>
</svg>
