<svg width="30" height="30" viewBox="0 0 30 30" fill="none" xmlns="http://www.w3.org/2000/svg">
<path d="M18.3333 10C17.8611 10 17.4656 9.84 17.1467 9.52C16.8278 9.2 16.6678 8.80444 16.6667 8.33333V1.66667C16.6667 1.19444 16.8267 0.798889 17.1467 0.48C17.4667 0.161111 17.8622 0.00111111 18.3333 0H28.3333C28.8056 0 29.2017 0.16 29.5217 0.48C29.8417 0.8 30.0011 1.19556 30 1.66667V8.33333C30 8.80555 29.84 9.20167 29.52 9.52167C29.2 9.84167 28.8044 10.0011 28.3333 10H18.3333ZM1.66667 16.6667C1.19444 16.6667 0.798889 16.5067 0.48 16.1867C0.161111 15.8667 0.00111111 15.4711 0 15V1.66667C0 1.19444 0.16 0.798889 0.48 0.48C0.8 0.161111 1.19556 0.00111111 1.66667 0H11.6667C12.1389 0 12.535 0.16 12.855 0.48C13.175 0.8 13.3344 1.19556 13.3333 1.66667V15C13.3333 15.4722 13.1733 15.8683 12.8533 16.1883C12.5333 16.5083 12.1378 16.6678 11.6667 16.6667H1.66667ZM18.3333 30C17.8611 30 17.4656 29.84 17.1467 29.52C16.8278 29.2 16.6678 28.8044 16.6667 28.3333V15C16.6667 14.5278 16.8267 14.1322 17.1467 13.8133C17.4667 13.4944 17.8622 13.3344 18.3333 13.3333H28.3333C28.8056 13.3333 29.2017 13.4933 29.5217 13.8133C29.8417 14.1333 30.0011 14.5289 30 15V28.3333C30 28.8056 29.84 29.2017 29.52 29.5217C29.2 29.8417 28.8044 30.0011 28.3333 30H18.3333ZM1.66667 30C1.19444 30 0.798889 29.84 0.48 29.52C0.161111 29.2 0.00111111 28.8044 0 28.3333V21.6667C0 21.1944 0.16 20.7989 0.48 20.48C0.8 20.1611 1.19556 20.0011 1.66667 20H11.6667C12.1389 20 12.535 20.16 12.855 20.48C13.175 20.8 13.3344 21.1956 13.3333 21.6667V28.3333C13.3333 28.8056 13.1733 29.2017 12.8533 29.5217C12.5333 29.8417 12.1378 30.0011 11.6667 30H1.66667Z" fill="black"/>
</svg>
