<svg width="15" height="19" viewBox="0 0 15 19" fill="none" xmlns="http://www.w3.org/2000/svg">
<path d="M9 17L8.293 17.707L9 18.414L9.707 17.707L9 17ZM1 0C0.734784 0 0.48043 0.105357 0.292893 0.292893C0.105357 0.48043 0 0.734784 0 1C0 1.26522 0.105357 1.51957 0.292893 1.70711C0.48043 1.89464 0.734784 2 1 2V0ZM3.293 12.707L8.293 17.707L9.707 16.293L4.707 11.293L3.293 12.707ZM9.707 17.707L14.707 12.707L13.293 11.293L8.293 16.293L9.707 17.707ZM10 17V7H8V17H10ZM3 0H1V2H3V0ZM10 7C10 5.14348 9.2625 3.36301 7.94975 2.05025C6.63699 0.737498 4.85652 0 3 0V2C4.32608 2 5.59785 2.52678 6.53553 3.46447C7.47322 4.40215 8 5.67392 8 7H10Z" fill="black"/>
</svg>
