<svg width="30" height="30" viewBox="0 0 30 30" fill="none" xmlns="http://www.w3.org/2000/svg">
<path d="M14.0498 13.4918C17.023 13.4918 19.4332 11.0816 19.4332 8.10843C19.4332 5.1353 17.023 2.7251 14.0498 2.7251C11.0767 2.7251 8.6665 5.1353 8.6665 8.10843C8.6665 11.0816 11.0767 13.4918 14.0498 13.4918Z" fill="black"/>
<path d="M17.5 23.3335H23.3333V24.5002H17.5V23.3335Z" fill="black"/>
<path d="M12.4999 25.0002V27.5002C12.4999 27.7212 12.5877 27.9332 12.744 28.0895C12.9002 28.2457 13.1122 28.3335 13.3332 28.3335H27.4999C27.7209 28.3335 27.9329 28.2457 28.0891 28.0895C28.2454 27.9332 28.3332 27.7212 28.3332 27.5002V19.1669C28.3332 18.9458 28.2454 18.7339 28.0891 18.5776C27.9329 18.4213 27.7209 18.3335 27.4999 18.3335H21.6666V17.1085C21.6666 16.8875 21.5788 16.6756 21.4225 16.5193C21.2662 16.363 21.0542 16.2752 20.8332 16.2752C20.6122 16.2752 20.4002 16.363 20.244 16.5193C20.0877 16.6756 19.9999 16.8875 19.9999 17.1085V18.3335H18.3332V15.3502C16.9172 15.1185 15.4848 15.0014 14.0499 15.0002C10.8856 14.9867 7.75667 15.6666 4.88322 16.9919C4.41029 17.215 4.01131 17.5692 3.73361 18.0123C3.45592 18.4555 3.31118 18.9689 3.31655 19.4919V25.0002H12.4999ZM26.6666 26.6669H14.1666V20.0002H19.9999V20.3502C19.9999 20.5712 20.0877 20.7832 20.244 20.9395C20.4002 21.0957 20.6122 21.1835 20.8332 21.1835C21.0542 21.1835 21.2662 21.0957 21.4225 20.9395C21.5788 20.7832 21.6666 20.5712 21.6666 20.3502V20.0002H26.6666V26.6669Z" fill="black"/>
</svg>
