<svg width="22" height="17" viewBox="0 0 22 17" fill="none" xmlns="http://www.w3.org/2000/svg">
<path d="M1 10C5 -2 17 -2 21 10" stroke="#436850" stroke-width="1.5" stroke-linecap="round" stroke-linejoin="round"/>
<path d="M11 16C10.5623 16 10.1288 15.8836 9.72441 15.6575C9.31999 15.4313 8.95253 15.0998 8.643 14.682C8.33347 14.2641 8.08794 13.768 7.92042 13.2221C7.75291 12.6761 7.66669 12.0909 7.66669 11.5C7.66669 10.9091 7.75291 10.3239 7.92042 9.77792C8.08794 9.23196 8.33347 8.73588 8.643 8.31802C8.95253 7.90016 9.31999 7.56869 9.72441 7.34254C10.1288 7.1164 10.5623 7 11 7C11.8841 7 12.7319 7.47411 13.357 8.31802C13.9822 9.16193 14.3334 10.3065 14.3334 11.5C14.3334 12.6935 13.9822 13.8381 13.357 14.682C12.7319 15.5259 11.8841 16 11 16Z" stroke="#436850" stroke-width="1.5" stroke-linecap="round" stroke-linejoin="round"/>
</svg>
