<svg width="30" height="35" viewBox="0 0 30 35" fill="none" xmlns="http://www.w3.org/2000/svg">
<path d="M19.5 10.2083H27.75L19.5 2.1875V10.2083ZM9 0H21L30 8.75V26.25C30 27.0235 29.6839 27.7654 29.1213 28.3124C28.5587 28.8594 27.7956 29.1667 27 29.1667H9C8.20435 29.1667 7.44129 28.8594 6.87868 28.3124C6.31607 27.7654 6 27.0235 6 26.25V2.91667C6 2.14312 6.31607 1.40125 6.87868 0.854272C7.44129 0.307291 8.20435 0 9 0ZM3 5.83333V32.0833H27V35H3C2.20435 35 1.44129 34.6927 0.87868 34.1457C0.31607 33.5987 0 32.8569 0 32.0833V5.83333H3Z" fill="black"/>
</svg>
