<svg width="34" height="44" viewBox="0 0 34 44" fill="none" xmlns="http://www.w3.org/2000/svg">
<path d="M17.0002 33.4167C18.1052 33.4167 19.165 32.9777 19.9464 32.1963C20.7278 31.4149 21.1668 30.3551 21.1668 29.25C21.1668 28.1449 20.7278 27.0851 19.9464 26.3037C19.165 25.5223 18.1052 25.0833 17.0002 25.0833C15.8951 25.0833 14.8353 25.5223 14.0539 26.3037C13.2725 27.0851 12.8335 28.1449 12.8335 29.25C12.8335 30.3551 13.2725 31.4149 14.0539 32.1963C14.8353 32.9777 15.8951 33.4167 17.0002 33.4167ZM29.5002 14.6667C30.6052 14.6667 31.665 15.1057 32.4464 15.8871C33.2278 16.6685 33.6668 17.7283 33.6668 18.8333V39.6667C33.6668 40.7717 33.2278 41.8316 32.4464 42.613C31.665 43.3944 30.6052 43.8333 29.5002 43.8333H4.50016C3.39509 43.8333 2.33529 43.3944 1.55388 42.613C0.772483 41.8316 0.333496 40.7717 0.333496 39.6667V18.8333C0.333496 17.7283 0.772483 16.6685 1.55388 15.8871C2.33529 15.1057 3.39509 14.6667 4.50016 14.6667H6.5835V10.5C6.5835 7.73734 7.68096 5.08782 9.63447 3.13431C11.588 1.18081 14.2375 0.0833435 17.0002 0.0833435C18.3681 0.0833435 19.7226 0.352779 20.9864 0.876265C22.2503 1.39975 23.3986 2.16704 24.3659 3.13431C25.3331 4.10159 26.1004 5.24992 26.6239 6.51372C27.1474 7.77753 27.4168 9.13207 27.4168 10.5V14.6667H29.5002ZM17.0002 4.25001C15.3426 4.25001 13.7528 4.90849 12.5807 6.08059C11.4086 7.2527 10.7502 8.84241 10.7502 10.5V14.6667H23.2502V10.5C23.2502 8.84241 22.5917 7.2527 21.4196 6.08059C20.2475 4.90849 18.6578 4.25001 17.0002 4.25001Z" fill="#436850"/>
</svg>
