<svg width="30" height="30" viewBox="0 0 30 30" fill="none" xmlns="http://www.w3.org/2000/svg">
<path d="M2.72728 24.8827H27.2727C27.6591 24.8827 27.9832 25.1283 28.245 25.6196C28.5068 26.1108 28.6373 26.7181 28.6364 27.4413C28.6354 28.1646 28.5045 28.7727 28.2436 29.2656C27.9827 29.7586 27.6591 30.0034 27.2727 30H2.72728C2.34091 30 2.01728 29.7543 1.75637 29.2631C1.49546 28.7718 1.36455 28.1646 1.36364 27.4413C1.36273 26.7181 1.49364 26.1108 1.75637 25.6196C2.0191 25.1283 2.34273 24.8827 2.72728 24.8827ZM4.09091 10.6823L3.44319 12.8571C3.30682 13.3262 3.10228 13.6247 2.82955 13.7526C2.55682 13.8806 2.29546 13.8166 2.04546 13.5608C1.79546 13.3049 1.63637 12.9211 1.56819 12.4094C1.50001 11.8976 1.5341 11.4072 1.67046 10.9382L2.31819 8.76332H1.02273C0.727279 8.76332 0.483188 8.58251 0.290461 8.22089C0.0977337 7.85927 0.000915433 7.40042 6.34249e-06 6.84434C-0.000902748 6.28826 0.0959155 5.83027 0.290461 5.47036C0.485006 5.11044 0.729097 4.92878 1.02273 4.92537H2.31819L1.67046 2.87846C1.5341 2.40938 1.50001 1.91897 1.56819 1.40725C1.63637 0.89552 1.79546 0.511726 2.04546 0.255863C2.29546 -3.62203e-07 2.55682 -0.0639657 2.82955 0.0639659C3.10228 0.191898 3.30682 0.490404 3.44319 0.959487L4.09091 3.00639L4.73864 0.959487C4.875 0.490404 5.07955 0.191898 5.35228 0.0639659C5.625 -0.0639657 5.88637 -3.62203e-07 6.13637 0.255863C6.38637 0.511726 6.54546 0.89552 6.61364 1.40725C6.68182 1.91897 6.64773 2.40938 6.51137 2.87846L5.86364 4.92537H7.15909C7.45455 4.92537 7.69909 5.10703 7.89273 5.47036C8.08637 5.83368 8.18273 6.29168 8.18182 6.84434C8.18091 7.39701 8.08409 7.85585 7.89137 8.22089C7.69864 8.58592 7.45455 8.76673 7.15909 8.76332H5.86364L6.51137 10.9382C6.64773 11.4072 6.68182 11.8976 6.61364 12.4094C6.54546 12.9211 6.38637 13.3049 6.13637 13.5608C5.88637 13.8166 5.625 13.8806 5.35228 13.7526C5.07955 13.6247 4.875 13.3262 4.73864 12.8571L4.09091 10.6823ZM15 10.6823L14.3523 12.8571C14.2159 13.3262 14.0114 13.6247 13.7386 13.7526C13.4659 13.8806 13.2045 13.8166 12.9545 13.5608C12.7045 13.3049 12.5455 12.9211 12.4773 12.4094C12.4091 11.8976 12.4432 11.4072 12.5795 10.9382L13.2273 8.76332H11.9318C11.6364 8.76332 11.3923 8.58251 11.1995 8.22089C11.0068 7.85927 10.91 7.40042 10.9091 6.84434C10.9082 6.28826 11.005 5.83027 11.1995 5.47036C11.3941 5.11044 11.6382 4.92878 11.9318 4.92537H13.2273L12.5795 2.87846C12.4432 2.40938 12.4091 1.91897 12.4773 1.40725C12.5455 0.89552 12.7045 0.511726 12.9545 0.255863C13.2045 -3.62203e-07 13.4659 -0.0639657 13.7386 0.0639659C14.0114 0.191898 14.2159 0.490404 14.3523 0.959487L15 3.00639L15.6477 0.959487C15.7841 0.490404 15.9886 0.191898 16.2614 0.0639659C16.5341 -0.0639657 16.7955 -3.62203e-07 17.0455 0.255863C17.2955 0.511726 17.4545 0.89552 17.5227 1.40725C17.5909 1.91897 17.5568 2.40938 17.4205 2.87846L16.7727 4.92537H18.0682C18.3636 4.92537 18.6077 5.10703 18.8005 5.47036C18.9932 5.83368 19.09 6.29168 19.0909 6.84434C19.0918 7.39701 18.995 7.85585 18.8005 8.22089C18.6059 8.58592 18.3618 8.76673 18.0682 8.76332H16.7727L17.4205 10.9382C17.5568 11.4072 17.5909 11.8976 17.5227 12.4094C17.4545 12.9211 17.2955 13.3049 17.0455 13.5608C16.7955 13.8166 16.5341 13.8806 16.2614 13.7526C15.9886 13.6247 15.7841 13.3262 15.6477 12.8571L15 10.6823ZM25.9091 10.6823L25.2614 12.8571C25.125 13.3262 24.9205 13.6247 24.6477 13.7526C24.375 13.8806 24.1136 13.8166 23.8636 13.5608C23.6136 13.3049 23.4545 12.9211 23.3864 12.4094C23.3182 11.8976 23.3523 11.4072 23.4886 10.9382L24.1364 8.76332H22.8409C22.5455 8.76332 22.3014 8.58251 22.1086 8.22089C21.9159 7.85927 21.8191 7.40042 21.8182 6.84434C21.8173 6.28826 21.9141 5.83027 22.1086 5.47036C22.3032 5.11044 22.5473 4.92878 22.8409 4.92537H24.1364L23.4886 2.87846C23.3523 2.40938 23.3182 1.91897 23.3864 1.40725C23.4545 0.89552 23.6136 0.511726 23.8636 0.255863C24.1136 -3.62203e-07 24.375 -0.0639657 24.6477 0.0639659C24.9205 0.191898 25.125 0.490404 25.2614 0.959487L25.9091 3.00639L26.5568 0.959487C26.6932 0.490404 26.8977 0.191898 27.1704 0.0639659C27.4432 -0.0639657 27.7045 -3.62203e-07 27.9545 0.255863C28.2045 0.511726 28.3636 0.89552 28.4318 1.40725C28.5 1.91897 28.4659 2.40938 28.3295 2.87846L27.6818 4.92537H28.9773C29.2727 4.92537 29.5173 5.10703 29.7109 5.47036C29.9045 5.83368 30.0009 6.29168 30 6.84434C29.9991 7.39701 29.9023 7.85585 29.7095 8.22089C29.5168 8.58592 29.2727 8.76673 28.9773 8.76332H27.6818L28.3295 10.9382C28.4659 11.4072 28.5 11.8976 28.4318 12.4094C28.3636 12.9211 28.2045 13.3049 27.9545 13.5608C27.7045 13.8166 27.4432 13.8806 27.1704 13.7526C26.8977 13.6247 26.6932 13.3262 26.5568 12.8571L25.9091 10.6823Z" fill="#436850"/>
</svg>
