<svg width="30" height="30" viewBox="0 0 30 30" fill="none" xmlns="http://www.w3.org/2000/svg">
<path d="M6.84857 0.181715C7.48629 -0.0017138 8.16171 5.77245e-07 9.02057 5.77245e-07H20.9794C21.8366 5.77245e-07 22.5137 4.85352e-07 23.1514 0.181715C23.7137 0.341143 24.2417 0.605143 24.7063 0.958286C25.236 1.35943 25.6406 1.90114 26.1566 2.58686L28.7057 5.988C29.0554 6.45429 29.3297 6.81943 29.5286 7.23257C29.7069 7.59829 29.8349 7.98114 29.9126 8.38114C30 8.832 30 9.28971 30 9.87257V23.2817C30 24.1971 30 24.9617 29.9486 25.5857C29.8971 26.2371 29.7806 26.8474 29.4857 27.4251C29.0342 28.3121 28.3135 29.0334 27.4269 29.4857C26.8474 29.7806 26.2371 29.8971 25.5857 29.9486C24.9617 30 24.1971 30 23.2817 30H6.72C5.80286 30 5.04 30 4.41429 29.9486C3.76286 29.8971 3.15257 29.7806 2.57486 29.4857C1.68814 29.0346 0.966874 28.3145 0.514286 27.4286C0.219428 26.8491 0.102857 26.2389 0.0514285 25.5874C-4.78966e-08 24.9634 0 24.1989 0 23.2834V9.87086C0 9.28972 2.04359e-07 8.832 0.0874288 8.38114C0.165877 7.98369 0.294326 7.59776 0.469714 7.23257C0.670286 6.82114 0.944572 6.45429 1.29429 5.988L3.84514 2.58857C4.35943 1.90114 4.764 1.35943 5.29371 0.960001C5.75829 0.605143 6.28629 0.342858 6.84857 0.181715ZM12.4286 15.8571C12.4286 16.3118 12.6092 16.7478 12.9307 17.0693C13.2522 17.3908 13.6882 17.5714 14.1429 17.5714H15.8571C16.3118 17.5714 16.7478 17.3908 17.0693 17.0693C17.3908 16.7478 17.5714 16.3118 17.5714 15.8571V9.42857H28.7126C28.7171 9.16037 28.6964 8.89234 28.6509 8.628C28.594 8.33886 28.5001 8.05826 28.3714 7.79314C28.2446 7.52914 28.0697 7.28572 27.7491 6.85714H17.412L16.9269 2.98629C16.8674 2.51723 16.6389 2.08598 16.2841 1.77339C15.9294 1.46079 15.4728 1.28833 15 1.28833C14.5272 1.28833 14.0706 1.46079 13.7159 1.77339C13.3611 2.08598 13.1326 2.51723 13.0731 2.98629L12.5897 6.85714H2.25086C1.93029 7.28572 1.75543 7.52914 1.62857 7.79314C1.49994 8.05826 1.40602 8.33886 1.34914 8.628C1.30356 8.89234 1.2829 9.16037 1.28743 9.42857H12.4286V15.8571ZM4.71429 23.5714C4.71429 24.0261 4.8949 24.4621 5.21639 24.7836C5.53788 25.1051 5.97391 25.2857 6.42857 25.2857H11.5714C12.0261 25.2857 12.4621 25.1051 12.7836 24.7836C13.1051 24.4621 13.2857 24.0261 13.2857 23.5714C13.2857 23.1168 13.1051 22.6807 12.7836 22.3592C12.4621 22.0378 12.0261 21.8571 11.5714 21.8571H6.42857C5.97391 21.8571 5.53788 22.0378 5.21639 22.3592C4.8949 22.6807 4.71429 23.1168 4.71429 23.5714Z" fill="black"/>
</svg>
