<svg width="28" height="29" viewBox="0 0 28 29" fill="none" xmlns="http://www.w3.org/2000/svg">
<path d="M22.6364 2.86599L23.4286 7.98762L27.987 10.3627L25.6883 15.0066L28 19.6506L23.4026 22.0257L22.6104 27.1473L17.5584 26.3379L13.961 30L10.3506 26.2848L5.33766 27.134L4.53247 21.9726L0 19.6108L2.31169 14.9668L0.012987 10.3627L4.57143 7.96108L5.36364 2.87926L10.3896 3.72844L14 0L17.5974 3.67537L22.6364 2.86599ZM10.7532 8.3724C10.2366 8.3724 9.7411 8.58209 9.37576 8.95534C9.01043 9.32859 8.80519 9.83482 8.80519 10.3627C8.80519 10.8905 9.01043 11.3968 9.37576 11.77C9.7411 12.1433 10.2366 12.3529 10.7532 12.3529C11.2699 12.3529 11.7654 12.1433 12.1307 11.77C12.4961 11.3968 12.7013 10.8905 12.7013 10.3627C12.7013 9.83482 12.4961 9.32859 12.1307 8.95534C11.7654 8.58209 11.2699 8.3724 10.7532 8.3724ZM17.2468 17.6603C16.7301 17.6603 16.2346 17.87 15.8693 18.2433C15.5039 18.6165 15.2987 19.1227 15.2987 19.6506C15.2987 20.1785 15.5039 20.6847 15.8693 21.0579C16.2346 21.4312 16.7301 21.6409 17.2468 21.6409C17.7634 21.6409 18.2589 21.4312 18.6242 21.0579C18.9896 20.6847 19.1948 20.1785 19.1948 19.6506C19.1948 19.1227 18.9896 18.6165 18.6242 18.2433C18.2589 17.87 17.7634 17.6603 17.2468 17.6603ZM9.33766 21.6409L20.4935 10.2433L18.6623 8.3724L7.50649 19.77L9.33766 21.6409Z" fill="black"/>
</svg>
