<svg width="30" height="28" viewBox="0 0 30 28" fill="none" xmlns="http://www.w3.org/2000/svg">
<path d="M15 0C23.2845 0 30 6.15707 30 13.7527C30 21.3483 23.2845 27.5054 15 27.5054C6.7155 27.5054 0 21.3483 0 13.7527C0 6.15707 6.7155 0 15 0ZM15 19.2537C14.6022 19.2537 14.2206 19.3986 13.9393 19.6566C13.658 19.9145 13.5 20.2643 13.5 20.629C13.5 20.9938 13.658 21.3436 13.9393 21.6015C14.2206 21.8594 14.6022 22.0043 15 22.0043C15.3978 22.0043 15.7794 21.8594 16.0607 21.6015C16.342 21.3436 16.5 20.9938 16.5 20.629C16.5 20.2643 16.342 19.9145 16.0607 19.6566C15.7794 19.3986 15.3978 19.2537 15 19.2537ZM15 6.1887C13.5579 6.1887 12.1748 6.71394 11.1551 7.64888C10.1354 8.58381 9.5625 9.85185 9.5625 11.174C9.5625 11.5388 9.72054 11.8886 10.0018 12.1465C10.2831 12.4044 10.6647 12.5493 11.0625 12.5493C11.4603 12.5493 11.8419 12.4044 12.1232 12.1465C12.4045 11.8886 12.5625 11.5388 12.5625 11.174C12.563 10.7684 12.6839 10.3705 12.9123 10.0231C13.1406 9.67563 13.4678 9.39172 13.8588 9.20181C14.2498 9.01189 14.6897 8.92311 15.1315 8.945C15.5733 8.96689 16.0003 9.09862 16.3667 9.32607C16.733 9.55351 17.025 9.86809 17.2111 10.2361C17.3973 10.6041 17.4708 11.0116 17.4236 11.4149C17.3764 11.8182 17.2104 12.2022 16.9433 12.5256C16.6762 12.849 16.3181 13.0997 15.9075 13.2507C14.8935 13.622 13.5 14.5737 13.5 16.1594V16.5032C13.5 16.868 13.658 17.2178 13.9393 17.4757C14.2206 17.7336 14.6022 17.8785 15 17.8785C15.3978 17.8785 15.7794 17.7336 16.0607 17.4757C16.342 17.2178 16.5 16.868 16.5 16.5032C16.5 16.1676 16.575 15.9999 16.8915 15.8568L17.022 15.8018C18.1932 15.3698 19.1641 14.5778 19.7681 13.5614C20.3721 12.545 20.5717 11.3677 20.3327 10.2311C20.0936 9.09462 19.4308 8.06974 18.4579 7.3322C17.4849 6.59465 16.2624 6.19039 15 6.1887Z" fill="#436850"/>
</svg>
