<svg width="30" height="30" viewBox="0 0 30 30" fill="none" xmlns="http://www.w3.org/2000/svg">
<path fill-rule="evenodd" clip-rule="evenodd" d="M18.312 4.245C18.992 4.455 19.642 4.725 20.262 5.055L23.0115 3.405C23.2982 3.23304 23.6341 3.16179 23.9659 3.20255C24.2978 3.24332 24.6064 3.39376 24.843 3.63L26.37 5.157C26.6062 5.39355 26.7567 5.70224 26.7974 6.03406C26.8382 6.36588 26.767 6.7018 26.595 6.9885L24.945 9.738C25.275 10.358 25.545 11.008 25.755 11.688L28.8645 12.4665C29.1889 12.5478 29.4768 12.7351 29.6825 12.9987C29.8882 13.2623 30 13.5871 30 13.9215V16.0785C30 16.4129 29.8882 16.7377 29.6825 17.0013C29.4768 17.2649 29.1889 17.4522 28.8645 17.5335L25.755 18.312C25.545 18.992 25.275 19.642 24.945 20.262L26.595 23.0115C26.767 23.2982 26.8382 23.6341 26.7974 23.9659C26.7567 24.2978 26.6062 24.6064 26.37 24.843L24.843 26.37C24.6064 26.6062 24.2978 26.7567 23.9659 26.7974C23.6341 26.8382 23.2982 26.767 23.0115 26.595L20.262 24.945C19.642 25.275 18.992 25.545 18.312 25.755L17.5335 28.8645C17.4522 29.1889 17.2649 29.4768 17.0013 29.6825C16.7377 29.8882 16.4129 30 16.0785 30H13.9215C13.5871 30 13.2623 29.8882 12.9987 29.6825C12.7351 29.4768 12.5478 29.1889 12.4665 28.8645L11.688 25.755C11.014 25.5467 10.3612 25.2755 9.738 24.945L6.9885 26.595C6.7018 26.767 6.36588 26.8382 6.03406 26.7974C5.70224 26.7567 5.39355 26.6062 5.157 26.37L3.63 24.843C3.39376 24.6064 3.24332 24.2978 3.20255 23.9659C3.16179 23.6341 3.23304 23.2982 3.405 23.0115L5.055 20.262C4.72446 19.6388 4.45327 18.986 4.245 18.312L1.1355 17.5335C0.811379 17.4523 0.523648 17.2652 0.317944 17.0019C0.11224 16.7386 0.000342964 16.4141 0 16.08V13.923C8.79065e-06 13.5886 0.111753 13.2638 0.317483 13.0002C0.523213 12.7366 0.81113 12.5493 1.1355 12.468L4.245 11.6895C4.455 11.0095 4.725 10.3595 5.055 9.7395L3.405 6.99C3.23304 6.7033 3.16179 6.36738 3.20255 6.03556C3.24332 5.70374 3.39376 5.39505 3.63 5.1585L5.157 3.63C5.39355 3.39376 5.70224 3.24332 6.03406 3.20255C6.36588 3.16179 6.7018 3.23304 6.9885 3.405L9.738 5.055C10.358 4.725 11.008 4.455 11.688 4.245L12.4665 1.1355C12.5477 0.811379 12.7348 0.523648 12.9981 0.317944C13.2614 0.11224 13.5859 0.000342964 13.92 0H16.077C16.4114 8.79065e-06 16.7362 0.111753 16.9998 0.317483C17.2634 0.523213 17.4507 0.81113 17.532 1.1355L18.312 4.245ZM15 21C16.5913 21 18.1174 20.3679 19.2426 19.2426C20.3679 18.1174 21 16.5913 21 15C21 13.4087 20.3679 11.8826 19.2426 10.7574C18.1174 9.63214 16.5913 9 15 9C13.4087 9 11.8826 9.63214 10.7574 10.7574C9.63214 11.8826 9 13.4087 9 15C9 16.5913 9.63214 18.1174 10.7574 19.2426C11.8826 20.3679 13.4087 21 15 21Z" fill="black"/>
</svg>
