<svg width="30" height="30" viewBox="0 0 30 30" fill="none" xmlns="http://www.w3.org/2000/svg">
<path fill-rule="evenodd" clip-rule="evenodd" d="M29.7683 12.1247L26.8155 4.91515C26.5435 4.2507 26.1204 3.69072 25.5944 3.29902C25.0685 2.90731 24.4608 2.69963 23.8407 2.69965H22.8741V12.1247H29.7683ZM20.1155 1.44192C19.8052 0.991507 19.4152 0.628613 18.9733 0.379304C18.5315 0.129994 18.0488 0.000458266 17.56 0H3.31028C2.43234 0 1.59036 0.415827 0.96956 1.15601C0.348761 1.89618 0 2.90008 0 3.94685V21.3814C0 22.4282 0.348761 23.4321 0.96956 24.1723C1.59036 24.9124 2.43234 25.3283 3.31028 25.3283H3.98117C4.05016 26.5926 4.52007 27.7784 5.29552 28.6447C6.07097 29.5111 7.09385 29.9932 8.15654 29.9932C9.21923 29.9932 10.2421 29.5111 11.0176 28.6447C11.793 27.7784 12.2629 26.5926 12.3319 25.3283H17.966C18.0359 26.6364 18.5348 27.8592 19.3548 28.7323C20.1748 29.6054 21.2501 30.0586 22.3481 29.9939C23.4462 29.9293 24.4787 29.352 25.2226 28.3868C25.9665 27.4217 26.3619 26.1462 26.3234 24.8362H26.6897C27.5677 24.8362 28.4096 24.4204 29.0304 23.6802C29.6512 22.94 30 21.9361 30 20.8894V15.4138H21.4948C21.129 15.4138 20.7781 15.2405 20.5195 14.9321C20.2608 14.6237 20.1155 14.2054 20.1155 13.7693V1.44192Z" fill="black"/>
</svg>
