<svg width="30" height="30" viewBox="0 0 30 30" fill="none" xmlns="http://www.w3.org/2000/svg">
<path fill-rule="evenodd" clip-rule="evenodd" d="M0 1.49925C0 1.10162 0.158035 0.720284 0.439338 0.43912C0.720642 0.157956 1.10217 0 1.49999 0H4.49998C4.87781 1.17417e-05 5.24171 0.142533 5.51896 0.399078C5.79621 0.655623 5.96639 1.0073 5.99548 1.38381L6.23548 4.49775H28.4999C28.7108 4.49774 28.9194 4.54218 29.1119 4.62818C29.3045 4.71418 29.4767 4.8398 29.6174 4.99684C29.7581 5.15388 29.8641 5.33882 29.9285 5.53957C29.9928 5.74033 30.0141 5.95239 29.9909 6.16192L28.7669 17.1739C28.6507 18.2192 28.1717 19.1907 27.4131 19.9195C26.6546 20.6484 25.6645 21.0885 24.6149 21.1634L9.08247 22.2729C7.89609 22.3576 6.7244 21.9694 5.82354 21.1932C4.92268 20.4169 4.36592 19.3158 4.27499 18.1304L3.35099 6.11244L3.11099 2.9985H1.49999C1.10217 2.9985 0.720642 2.84054 0.439338 2.55938C0.158035 2.27822 0 1.89688 0 1.49925ZM16.4999 9.74513C16.8978 9.74513 17.2793 9.90308 17.5606 10.1842C17.8419 10.4654 17.9999 10.8468 17.9999 11.2444V11.994H18.7499C19.1478 11.994 19.5293 12.152 19.8106 12.4331C20.0919 12.7143 20.2499 13.0956 20.2499 13.4933C20.2499 13.8909 20.0919 14.2722 19.8106 14.5534C19.5293 14.8345 19.1478 14.9925 18.7499 14.9925H17.9999V15.7421C17.9999 16.1398 17.8419 16.5211 17.5606 16.8023C17.2793 17.0834 16.8978 17.2414 16.4999 17.2414C16.1021 17.2414 15.7206 17.0834 15.4393 16.8023C15.158 16.5211 14.9999 16.1398 14.9999 15.7421V14.9925H14.25C13.8521 14.9925 13.4706 14.8345 13.1893 14.5534C12.908 14.2722 12.75 13.8909 12.75 13.4933C12.75 13.0956 12.908 12.7143 13.1893 12.4331C13.4706 12.152 13.8521 11.994 14.25 11.994H14.9999V11.2444C14.9999 10.8468 15.158 10.4654 15.4393 10.1842C15.7206 9.90308 16.1021 9.74513 16.4999 9.74513ZM20.9999 27.7361C20.9999 27.1397 21.237 26.5677 21.6589 26.1459C22.0809 25.7242 22.6532 25.4873 23.2499 25.4873H23.2649C23.8617 25.4873 24.4339 25.7242 24.8559 26.1459C25.2779 26.5677 25.5149 27.1397 25.5149 27.7361V27.7511C25.5149 28.3476 25.2779 28.9196 24.8559 29.3413C24.4339 29.7631 23.8617 30 23.2649 30H23.2499C22.6532 30 22.0809 29.7631 21.6589 29.3413C21.237 28.9196 20.9999 28.3476 20.9999 27.7511V27.7361ZM9.74997 25.4873C9.15323 25.4873 8.58094 25.7242 8.15898 26.1459C7.73703 26.5677 7.49997 27.1397 7.49997 27.7361V27.7511C7.49997 28.3476 7.73703 28.9196 8.15898 29.3413C8.58094 29.7631 9.15323 30 9.74997 30H9.76497C10.3617 30 10.934 29.7631 11.356 29.3413C11.7779 28.9196 12.015 28.3476 12.015 27.7511V27.7361C12.015 27.1397 11.7779 26.5677 11.356 26.1459C10.934 25.7242 10.3617 25.4873 9.76497 25.4873H9.74997Z" fill="black"/>
</svg>
