<svg width="14" height="13" viewBox="0 0 14 13" fill="none" xmlns="http://www.w3.org/2000/svg">
<path d="M12.972 0.250885C12.7424 0.123271 12.4899 0.0421388 12.2289 0.0121228C11.9679 -0.0178931 11.7036 0.00379507 11.451 0.0759489C11.1984 0.148103 10.9625 0.269308 10.7568 0.432644C10.5511 0.595979 10.3795 0.798243 10.252 1.02789L6.53898 7.70989L4.41398 5.58489C4.22949 5.39386 4.0088 5.2415 3.76479 5.13668C3.52078 5.03186 3.25834 4.97669 2.99278 4.97438C2.72722 4.97208 2.46386 5.02268 2.21807 5.12324C1.97228 5.2238 1.74897 5.37231 1.56119 5.5601C1.3734 5.74788 1.2249 5.97118 1.12434 6.21698C1.02377 6.46277 0.973171 6.72613 0.975478 6.99169C0.977786 7.25725 1.03296 7.51969 1.13778 7.76369C1.24259 8.0077 1.39496 8.22839 1.58598 8.41289L5.58598 12.4129C5.96398 12.7919 6.47398 12.9999 6.99998 12.9999L7.27698 12.9799C7.58353 12.937 7.87594 12.8236 8.1312 12.6485C8.38646 12.4734 8.59759 12.2414 8.74798 11.9709L13.748 2.97089C13.8756 2.74134 13.9568 2.48889 13.9869 2.22797C14.017 1.96704 13.9954 1.70274 13.9233 1.45016C13.8513 1.19758 13.7302 0.961673 13.5669 0.755901C13.4037 0.550128 13.2015 0.378523 12.972 0.250885Z" fill="black"/>
</svg>
