<svg width="15" height="19" viewBox="0 0 15 19" fill="none" xmlns="http://www.w3.org/2000/svg">
<path d="M5.99997 1.99994L6.70697 1.29294L5.99997 0.585938L5.29297 1.29294L5.99997 1.99994ZM14 18.9999C14.2652 18.9999 14.5195 18.8946 14.7071 18.707C14.8946 18.5195 15 18.2652 15 17.9999C15 17.7347 14.8946 17.4804 14.7071 17.2928C14.5195 17.1053 14.2652 16.9999 14 16.9999V18.9999ZM11.707 6.29294L6.70697 1.29294L5.29297 2.70694L10.293 7.70694L11.707 6.29294ZM5.29297 1.29294L0.292969 6.29294L1.70697 7.70694L6.70697 2.70694L5.29297 1.29294ZM4.99997 1.99994V11.9999H6.99997V1.99994H4.99997ZM12 18.9999H14V16.9999H12V18.9999ZM4.99997 11.9999C4.99997 13.8565 5.73747 15.6369 7.05022 16.9497C8.36298 18.2624 10.1435 18.9999 12 18.9999V16.9999C10.6739 16.9999 9.40212 16.4732 8.46443 15.5355C7.52675 14.5978 6.99997 13.326 6.99997 11.9999H4.99997Z" fill="black"/>
</svg>
